<svg xmlns="http://www.w3.org/2000/svg" width="2000" height="1400"><path fill="#fafcfe" d="M0 0h2000v1400H0z"/><path d="M0 350h0c118.22-20.08 236.439-40.16 349-31 112.561 9.16 219.464 47.558 326 47 106.536-.558 212.704-40.072 320-48 107.296-7.928 215.718 15.73 326 27 110.282 11.27 222.422 10.15 351 15s273.594 15.672 331 15c57.406-.672 27.203-12.836 37-25" fill="none" stroke="#dbe5f7" stroke-width="4" stroke-linecap="round"/><path d="M0 700h0c108.835 4.89 217.67 9.78 333 10 115.33.22 237.155-4.228 345-13s201.71-21.867 313-13c111.29 8.867 240.006 39.696 350 38 109.994-1.696 201.268-35.918 324-49s276.924-5.023 338 3c61.076 8.023 29.038 16.012 37 24" fill="none" stroke="#dee8f7" stroke-width="4" stroke-linecap="round"/><path d="M0 1050h0c116.559 8.227 233.118 16.453 344 25s216.088 17.413 325 6 221.529-43.105 336-42c114.471 1.105 230.796 35.008 339 38 108.204 2.992 208.286-24.925 327-34s256.061.693 314 5c57.939 4.307 36.47 3.154 55 2" fill="none" stroke="#f3f6fc" stroke-width="4" stroke-linecap="round"/></svg>